<svg id="instagram" xmlns="http://www.w3.org/2000/svg" viewBox="0 0 54.46 54.46"><defs><style>.cls-1{fill:#fff;}</style></defs><g id="Group_154" data-name="Group 154"><g id="Group_153" data-name="Group 153"><path id="Path_168" data-name="Path 168" class="cls-1" d="M38.64,0H15.82A15.84,15.84,0,0,0,0,15.82V38.64A15.84,15.84,0,0,0,15.82,54.46H38.64A15.83,15.83,0,0,0,54.46,38.64V15.82A15.84,15.84,0,0,0,38.64,0ZM50.21,38.64A11.58,11.58,0,0,1,38.64,50.21H15.82A11.57,11.57,0,0,1,4.26,38.64V15.82A11.57,11.57,0,0,1,15.82,4.26H38.64A11.57,11.57,0,0,1,50.21,15.82Z"/></g></g><g id="Group_156" data-name="Group 156"><g id="Group_155" data-name="Group 155"><path id="Path_169" data-name="Path 169" class="cls-1" d="M27.23,12.55A14.68,14.68,0,1,0,41.91,27.23,14.68,14.68,0,0,0,27.23,12.55Zm0,25.1A10.43,10.43,0,1,1,37.65,27.23h0A10.44,10.44,0,0,1,27.23,37.65Z"/></g></g><g id="Group_158" data-name="Group 158"><g id="Group_157" data-name="Group 157"><circle id="Ellipse_1" data-name="Ellipse 1" class="cls-1" cx="41.58" cy="13.01" r="2.45"/></g></g></svg>