<svg id="Layer_1" data-name="Layer 1" xmlns="http://www.w3.org/2000/svg" viewBox="0 0 23 18.01"><defs><style>.cls-1{fill:#fff;}</style></defs><path id="Op_component_2" data-name="Op component 2" class="cls-1" d="M23,2.13a9.78,9.78,0,0,1-2.71.72A4.57,4.57,0,0,0,22.36.33a9.42,9.42,0,0,1-3,1.1A4.78,4.78,0,0,0,15.92,0,4.63,4.63,0,0,0,11.2,4.54a4.55,4.55,0,0,0,.12,1A13.58,13.58,0,0,1,1.6.83,4.4,4.4,0,0,0,1,3.12,4.51,4.51,0,0,0,3.06,6.9,4.84,4.84,0,0,1,.92,6.33v.06a4.58,4.58,0,0,0,3.79,4.45A4.82,4.82,0,0,1,3.46,11a5.24,5.24,0,0,1-.88-.08A4.71,4.71,0,0,0,7,14.08,9.75,9.75,0,0,1,1.12,16,10.51,10.51,0,0,1,0,16a13.77,13.77,0,0,0,7.23,2A13.08,13.08,0,0,0,20.65,5.27a1.27,1.27,0,0,0,0-.2,5.82,5.82,0,0,0,0-.59A9.41,9.41,0,0,0,23,2.13Z" transform="translate(0 0)"/></svg>