<svg id="Group_707" data-name="Group 707" xmlns="http://www.w3.org/2000/svg" viewBox="0 0 40.63 40.75"><defs><style>.cls-1{fill:#fff;}</style></defs><path id="Path_38949" data-name="Path 38949" class="cls-1" d="M0,40.7,2.85,30.58A20.3,20.3,0,1,1,10.43,38Zm11-6.38.62.38a16.86,16.86,0,1,0-5.43-5.31l.42.65L4.94,35.87Z" transform="translate(0 0.05)"/><path id="Path_38950" data-name="Path 38950" class="cls-1" d="M14.66,10.84l-1.32-.07a1.61,1.61,0,0,0-1.13.39,6,6,0,0,0-2,3c-.47,2.08.26,4.64,2.13,7.19a21.36,21.36,0,0,0,11.53,8.38,5.63,5.63,0,0,0,4.76-.59,4.26,4.26,0,0,0,1.85-2.7l.21-1a.67.67,0,0,0-.38-.76l-4.45-2.05a.68.68,0,0,0-.83.2l-1.73,2.3a.5.5,0,0,1-.56.17A13.69,13.69,0,0,1,15.32,19a.52.52,0,0,1,.06-.56l1.67-1.93a.68.68,0,0,0,.11-.71l-1.92-4.49A.68.68,0,0,0,14.66,10.84Z" transform="translate(0 0.05)"/></svg>